<?xml version="1.0" standalone="no"?>
<!DOCTYPE svg PUBLIC "-//W3C//DTD SVG 20010904//EN"
 "http://www.w3.org/TR/2001/REC-SVG-20010904/DTD/svg10.dtd">
<svg version="1.0" xmlns="http://www.w3.org/2000/svg"
 width="676.000000pt" height="275.000000pt" viewBox="0 0 676.000000 275.000000"
 preserveAspectRatio="xMidYMid meet">

<g transform="translate(0.000000,275.000000) scale(0.100000,-0.100000)"
fill="#80192a" stroke="none">
<path d="M1702 2530 c-96 -34 -191 -107 -266 -203 -62 -80 -81 -155 -72 -289
21 -337 21 -320 -8 -412 -36 -117 -100 -207 -252 -356 -289 -284 -343 -349
-387 -467 -33 -91 -30 -243 7 -348 35 -97 73 -174 131 -266 42 -64 75 -92 62
-51 -76 233 -74 403 8 569 86 174 259 263 397 204 90 -38 164 -146 210 -306
17 -62 22 -106 23 -195 0 -101 -4 -125 -28 -198 -16 -45 -26 -89 -23 -97 8
-22 53 -18 91 8 67 46 268 231 342 316 200 229 339 512 405 828 20 93 23 138
23 328 0 172 -4 240 -18 313 -61 314 -213 553 -396 623 -67 25 -178 25 -249
-1z m235 -16 c193 -66 348 -329 399 -678 22 -148 15 -407 -15 -557 -51 -257
-127 -442 -269 -659 -59 -91 -106 -146 -221 -260 -154 -153 -260 -240 -292
-240 -24 0 -24 3 1 67 34 90 50 210 39 289 -40 288 -176 474 -346 474 -88 0
-158 -33 -234 -110 -120 -122 -165 -253 -156 -458 3 -67 2 -120 -3 -117 -19
12 -62 99 -92 187 -25 76 -31 110 -32 183 -2 189 42 264 310 530 111 110 221
225 244 254 113 148 149 286 125 487 -7 60 -12 150 -11 200 2 106 28 171 102
253 52 58 159 131 224 154 60 21 168 21 227 1z"/>
<path d="M510 2525 c-135 -38 -232 -130 -320 -304 -52 -104 -103 -271 -115
-381 -8 -72 -9 -379 -1 -450 8 -69 75 -342 87 -355 5 -5 9 -15 9 -23 0 -59
195 -415 278 -508 9 -11 44 -51 77 -89 71 -83 70 -82 115 -119 19 -15 53 -45
75 -65 66 -59 136 -114 141 -109 2 3 -13 34 -34 69 -118 195 -184 426 -162
565 30 186 99 284 370 524 132 116 192 187 232 270 29 60 32 73 31 165 0 88
-4 110 -32 182 -73 187 -294 477 -436 571 -91 60 -219 83 -315 57z"/>
<path d="M5504 1290 c-142 -63 -147 -259 -10 -321 47 -21 76 -23 130 -8 43 12
96 61 96 87 0 11 -11 3 -30 -20 -56 -68 -141 -69 -199 -3 -80 92 -54 242 45
261 49 9 80 -8 112 -61 15 -24 30 -45 33 -45 3 0 12 11 19 25 12 22 11 27 -6
46 -47 52 -126 68 -190 39z"/>
<path d="M6468 1286 c-23 -11 -55 -38 -72 -59 -26 -32 -30 -47 -31 -96 0 -135
128 -218 252 -162 25 12 48 32 57 50 24 46 19 49 -14 9 -56 -68 -141 -69 -199
-3 -80 92 -53 242 46 261 48 9 79 -8 111 -61 15 -24 30 -45 33 -45 3 0 12 11
19 25 12 22 11 27 -6 46 -48 54 -131 69 -196 35z"/>
<path d="M3040 1130 c0 -163 1 -170 20 -170 17 0 20 7 20 51 0 64 21 100 74
130 65 35 76 48 76 89 0 33 -4 40 -34 54 -20 9 -60 16 -95 16 l-61 0 0 -170z
m132 129 c18 -24 19 -29 5 -55 -8 -16 -33 -44 -56 -62 l-41 -33 0 91 0 91 37
-3 c25 -2 42 -11 55 -29z"/>
<path d="M3258 1294 c-5 -4 -8 -81 -8 -171 l0 -163 25 0 c24 0 25 3 25 60 0
51 4 65 25 85 51 52 85 19 85 -85 0 -57 1 -60 24 -60 22 0 25 4 25 43 -1 64
-17 113 -43 131 l-25 16 30 29 c32 33 34 70 4 100 -17 17 -154 29 -167 15z
m120 -24 c12 -12 22 -29 22 -39 0 -23 -31 -64 -70 -91 l-30 -21 0 85 0 86 28
0 c16 0 38 -9 50 -20z"/>
<path d="M3487 1293 c-11 -19 0 -249 13 -276 18 -37 58 -57 112 -57 52 0 85
21 104 66 17 40 20 274 4 274 -6 0 -10 -49 -10 -127 0 -109 -3 -133 -20 -160
-36 -60 -126 -52 -150 13 -6 14 -10 81 -10 150 0 116 -1 124 -19 124 -11 0
-22 -3 -24 -7z"/>
<path d="M3760 1130 l0 -170 55 0 c71 0 123 22 157 67 47 61 49 139 5 203 -33
48 -80 70 -154 70 l-63 0 0 -170z m130 130 c61 -44 85 -160 45 -227 -21 -36
-68 -63 -109 -63 l-26 0 0 161 0 162 31 -7 c17 -3 43 -15 59 -26z"/>
<path d="M4030 1130 l0 -170 103 2 102 2 -83 3 -83 4 3 77 3 77 68 3 c37 2 67
7 67 11 0 5 -23 7 -52 6 -85 -3 -86 -3 -84 73 l2 67 79 6 80 5 -102 2 -103 2
0 -170z"/>
<path d="M4250 1130 c0 -93 3 -170 8 -170 4 0 7 59 6 130 -1 72 2 132 5 134 3
2 44 -56 91 -130 117 -184 120 -183 120 38 0 94 -2 169 -4 167 -3 -3 -6 -62
-7 -132 -1 -70 -5 -129 -8 -132 -4 -2 -44 57 -90 131 -117 186 -121 184 -121
-36z"/>
<path d="M4560 1291 l65 -6 2 -145 c1 -80 2 -153 2 -162 1 -11 9 -18 21 -18
19 0 20 7 20 165 l0 164 63 4 c34 2 -5 3 -88 3 -94 0 -126 -2 -85 -5z"/>
<path d="M4830 1285 c0 -8 -27 -85 -59 -171 -33 -85 -55 -154 -49 -152 6 2 20
27 32 56 l21 52 71 0 71 0 20 -52 c15 -39 26 -54 42 -56 11 -2 21 0 21 5 0 4
-28 81 -62 171 -55 145 -64 162 -85 162 -14 0 -23 -6 -23 -15z m54 -128 c14
-37 26 -69 26 -72 0 -3 -29 -5 -64 -5 l-65 0 18 53 c27 76 44 109 51 100 4 -5
19 -38 34 -76z"/>
<path d="M5020 1130 l0 -170 108 2 107 2 -83 5 -84 6 -1 163 -1 162 -23 0 -23
0 0 -170z"/>
<path d="M5750 1130 l0 -170 103 2 102 2 -82 3 -83 4 0 164 c0 158 -1 165 -20
165 -19 0 -20 -7 -20 -170z"/>
<path d="M5970 1130 c0 -163 1 -170 20 -170 18 0 20 7 21 83 1 79 1 234 0 250
-1 4 -10 7 -21 7 -19 0 -20 -7 -20 -170z"/>
<path d="M6040 1129 c0 -93 4 -168 9 -165 4 3 8 60 7 127 0 66 1 125 4 129 3
5 32 -34 65 -86 33 -52 68 -107 77 -122 10 -15 21 -33 24 -39 3 -7 15 -13 25
-13 18 0 19 9 17 173 -2 131 -3 145 -5 57 -2 -63 -6 -126 -9 -140 -5 -23 -8
-21 -40 30 -178 285 -174 284 -174 49z"/>
<path d="M6290 1130 c0 -163 1 -170 20 -170 20 0 22 10 22 110 0 211 -2 230
-22 230 -19 0 -20 -7 -20 -170z"/>
</g>
</svg>
