<?xml version="1.0" standalone="no"?>
<!DOCTYPE svg PUBLIC "-//W3C//DTD SVG 20010904//EN"
 "http://www.w3.org/TR/2001/REC-SVG-20010904/DTD/svg10.dtd">
<svg version="1.0" xmlns="http://www.w3.org/2000/svg"
 width="50" height="50" viewBox="0 0 238.000000 253.000000"
 preserveAspectRatio="xMidYMid meet">

<g transform="translate(0.000000,253.000000) scale(0.100000,-0.100000)"
fill="#dddddd" stroke="none">
<path d="M1662 2460 c-96 -34 -191 -107 -266 -203 -62 -80 -81 -155 -72 -289
20 -329 20 -321 -4 -399 -41 -137 -91 -208 -266 -379 -210 -206 -264 -264
-310 -332 -137 -204 -122 -416 49 -700 34 -56 68 -104 76 -106 10 -3 12 1 8
14 -77 239 -74 403 8 571 86 174 259 263 397 204 90 -38 164 -146 210 -306 17
-62 22 -106 23 -195 0 -101 -4 -125 -28 -198 -31 -90 -30 -112 6 -112 33 0 87
38 217 154 258 229 432 486 530 786 62 188 82 300 87 502 8 283 -25 474 -116
663 -84 175 -181 280 -300 326 -67 25 -178 25 -249 -1z m273 -30 c83 -39 185
-153 244 -273 99 -201 136 -397 128 -667 -7 -238 -43 -416 -126 -623 -93 -233
-201 -391 -402 -589 -149 -146 -249 -228 -280 -228 -24 0 -24 3 1 67 11 29 27
92 35 140 14 78 14 97 0 178 -37 214 -119 361 -237 419 -110 55 -232 25 -339
-84 -120 -122 -165 -253 -156 -458 3 -67 2 -120 -3 -117 -19 12 -62 99 -90
183 -39 118 -48 216 -25 301 37 143 95 221 324 439 314 300 380 439 344 734
-27 228 -6 327 93 437 52 58 158 131 224 154 67 24 200 18 265 -13z"/>
<path d="M470 2454 c-134 -36 -232 -129 -320 -303 -53 -106 -95 -242 -112
-366 -11 -78 -13 -380 -4 -465 8 -69 75 -342 87 -355 5 -5 9 -15 9 -23 0 -59
195 -415 278 -508 9 -11 44 -51 77 -89 71 -83 70 -82 115 -119 19 -15 53 -45
75 -65 69 -63 136 -113 142 -108 3 3 -4 19 -16 35 -38 54 -119 225 -144 307
-38 121 -49 213 -37 292 30 183 104 289 370 523 131 116 192 187 232 270 29
60 32 73 31 165 0 88 -4 110 -32 182 -43 110 -180 324 -252 393 -9 8 -35 39
-58 67 -61 76 -173 147 -260 167 -84 19 -109 19 -181 0z"/>
</g>
</svg>
